# Blender v2.79 (sub 0) OBJ File: ''
# www.blender.org
mtllib GearFanGrate.mtl
o Cube
v -0.000000 0.500000 -0.800000
v -0.156072 0.500000 -0.784628
v -0.306147 0.500000 -0.739104
v -0.444456 0.500000 -0.665176
v -0.565685 0.500000 -0.565686
v -0.665176 0.500000 -0.444456
v -0.739104 0.500000 -0.306147
v -0.784628 0.500000 -0.156072
v -0.800000 0.500000 -0.000000
v -0.784628 0.500000 0.156072
v -0.739104 0.500000 0.306147
v -0.665176 0.500000 0.444456
v -0.565685 0.500000 0.565685
v -0.444456 0.500000 0.665176
v -0.306147 0.500000 0.739104
v -0.156072 0.500000 0.784628
v 0.000000 0.500000 0.800000
v 0.156073 0.500000 0.784628
v 0.306147 0.500000 0.739103
v 0.444457 0.500000 0.665175
v 0.565686 0.500000 0.565685
v 0.665176 0.500000 0.444456
v 0.739104 0.500000 0.306146
v 0.784628 0.500000 0.156072
v 0.800000 0.500000 -0.000001
v 0.784628 0.500000 -0.156073
v 0.739103 0.500000 -0.306148
v 0.665175 0.500000 -0.444457
v 0.565685 0.500000 -0.565686
v 0.444455 0.500000 -0.665176
v 0.306146 0.500000 -0.739104
v 0.156071 0.500000 -0.784629
vt 0.000000 0.000000
vt 0.000000 0.000000
vt 0.000000 0.000000
vt 0.000000 0.000000
vt 0.000000 0.000000
vt 0.000000 0.000000
vt 0.000000 0.000000
vt 0.000000 0.000000
vt 0.000000 0.000000
vt 0.000000 0.000000
vt 0.000000 0.000000
vt 0.000000 0.000000
vt 0.000000 0.000000
vt 0.000000 0.000000
vt 0.000000 0.000000
vt 0.000000 0.000000
vt 0.000000 0.000000
vt 0.000000 0.000000
vt 0.000000 0.000000
vt 0.000000 0.000000
vt 0.000000 0.000000
vt 0.000000 0.000000
vt 0.000000 0.000000
vt 0.000000 0.000000
vt 0.000000 0.000000
vt 0.000000 0.000000
vt 0.000000 0.000000
vt 0.000000 0.000000
vt 0.000000 0.000000
vt 0.000000 0.000000
vt 0.000000 0.000000
vt 0.000000 0.000000
vn 0.0000 1.0000 -0.0000
usemtl Material
s off
f 3/1/1 4/2/1 5/3/1 6/4/1 7/5/1 8/6/1 9/7/1 10/8/1 11/9/1 12/10/1 13/11/1 14/12/1 15/13/1 16/14/1 17/15/1 18/16/1 19/17/1 20/18/1 21/19/1 22/20/1 23/21/1 24/22/1 25/23/1 26/24/1 27/25/1 28/26/1 29/27/1 30/28/1 31/29/1 32/30/1 1/31/1 2/32/1
