# Blender v2.79 (sub 0) OBJ File: ''
# www.blender.org
mtllib GearTV.mtl
o Cube_Cube.001
v 0.825205 1.351685 -0.803295
v 0.754494 1.451685 -0.732584
v 0.854494 1.351685 -0.732584
v 0.683783 1.351685 -0.661873
v 0.654494 1.351685 -0.732584
v 0.683783 1.351685 -0.803295
v 0.825205 1.351685 -0.661873
v 0.754494 1.351685 -0.832584
v 0.754494 1.351685 -0.632584
v 0.754494 1.251685 -0.632584
v 0.754494 1.276685 -0.682584
v 0.719139 1.276685 -0.697229
v 0.683783 1.251685 -0.661873
v 0.754494 1.326685 -0.682584
v 0.789849 1.326685 -0.697229
v 0.825205 1.251685 -0.803295
v 0.789849 1.276685 -0.767939
v 0.804494 1.276685 -0.732584
v 0.854494 1.251685 -0.732584
v 0.804494 1.326685 -0.732584
v 0.789849 1.326685 -0.767939
v 0.754494 1.326685 -0.782584
v 0.825205 1.251685 -0.661873
v 0.789849 1.276685 -0.697229
v 0.754494 1.251685 -0.832584
v 0.754494 1.276685 -0.782584
v 0.719139 1.326685 -0.697229
v 0.704494 1.326685 -0.732584
v 0.704494 1.276685 -0.732584
v 0.719139 1.326685 -0.767939
v 0.719139 1.276685 -0.767939
v 0.654494 1.251685 -0.732584
v 0.683783 1.251685 -0.803295
v 0.825205 0.751685 -0.803295
v 0.854494 0.751685 -0.732584
v 0.683783 0.751685 -0.661873
v 0.654494 0.751685 -0.732584
v 0.683783 0.751685 -0.803295
v 0.825205 0.751685 -0.661873
v 0.754494 0.751685 -0.832584
v 0.754494 0.751685 -0.632584
v -0.995506 0.751685 -0.982584
v -0.995506 0.751685 1.017416
v 1.004494 0.751685 -0.982584
v 1.004494 0.751685 1.017416
v 0.644494 -0.598315 1.017416
v 0.644494 -0.598315 0.917416
v -0.635506 -0.598315 0.917416
v -0.635506 -0.598315 1.017416
v -0.795506 -0.598315 0.917416
v -0.795505 -0.598315 1.017416
v -0.795506 0.601685 1.017416
v -0.795506 0.601685 0.917416
v 0.804494 0.601685 0.917416
v 0.804494 0.601685 1.017416
v 0.804495 -0.598315 0.917416
v 0.804495 -0.598315 1.017416
v 1.004495 -0.748315 1.017416
v 0.804495 -0.748315 1.017416
v -0.795505 -0.748315 1.017416
v -0.995506 -0.748315 1.017416
v 1.004495 -0.748315 -0.782584
v 1.004495 -0.748315 -0.982584
v 1.004495 -0.748315 0.817416
v 0.804495 -0.748315 -0.982584
v -0.795505 -0.748315 -0.982584
v -0.995505 -0.748315 -0.982584
v -0.995506 -0.748315 0.817416
v -0.995505 -0.748315 -0.782584
v -0.795506 -0.748315 0.817416
v -0.795505 -0.748315 -0.782584
v 0.804495 -0.748315 -0.782584
v 0.804495 -0.748315 0.817416
v 0.804495 -1.248314 -0.982584
v 1.004495 -1.248314 -0.982584
v 0.804495 -1.248314 1.017416
v 0.804495 -1.248314 0.817416
v 0.804495 -1.248314 -0.782584
v 1.004495 -1.248314 -0.782584
v -0.795505 -1.248315 1.017416
v -0.995505 -1.248315 1.017416
v 1.004495 -1.248314 1.017416
v -0.995505 -1.248315 -0.982584
v -0.795505 -1.248315 -0.982584
v -0.795505 -1.248315 -0.782584
v -0.995505 -1.248315 -0.782584
v 1.004495 -1.248314 0.817416
v -0.995505 -1.248315 0.817416
v -0.795505 -1.248315 0.817416
vt 0.002669 0.916964
vt 0.000028 0.999972
vt 0.002738 0.915660
vt 0.002643 0.916306
vt 0.002538 0.916303
vt 0.002492 0.916305
vt 0.002818 0.916974
vt 0.002600 0.915696
vt 0.002657 0.916287
vt 0.005171 0.841501
vt 0.004246 0.862650
vt 0.004238 0.864469
vt 0.004777 0.840685
vt 0.003465 0.895300
vt 0.003405 0.893490
vt 0.005168 0.842367
vt 0.004382 0.861821
vt 0.004388 0.862277
vt 0.005218 0.842127
vt 0.003275 0.896625
vt 0.003286 0.894078
vt 0.003085 0.897249
vt 0.005195 0.841731
vt 0.004373 0.861974
vt 0.004833 0.842894
vt 0.004453 0.861173
vt 0.003335 0.896082
vt 0.003265 0.895973
vt 0.004307 0.861472
vt 0.003210 0.896588
vt 0.004238 0.864214
vt 0.004710 0.842294
vt 0.004725 0.841331
vt 0.020206 0.317486
vt 0.018740 0.315086
vt 0.024478 0.290174
vt 0.022524 0.305329
vt 0.020596 0.303688
vt 0.022056 0.302101
vt 0.022317 0.315624
vt 0.022762 0.304415
vt 0.011301 0.240021
vt 0.021267 0.211948
vt 0.018750 0.264717
vt 0.028084 0.205572
vt 0.021931 0.108865
vt 0.028310 0.117833
vt 0.011971 0.168349
vt 0.016364 0.172596
vt 0.017986 0.172678
vt 0.021299 0.177290
vt 0.021474 0.202688
vt 0.020102 0.197411
vt 0.044032 0.171383
vt 0.034156 0.184249
vt 0.033027 0.108794
vt 0.032726 0.086478
vt 0.031299 0.000028
vt 0.010194 0.092667
vt 0.024216 0.180752
vt 0.021858 0.183365
vt 0.031118 0.190927
vt 0.027819 0.212591
vt 0.031300 0.110693
vt 0.020499 0.210801
vt 0.023773 0.209283
vt 0.014029 0.214272
vt 0.028730 0.185008
vt 0.015158 0.210318
vt 0.031839 0.179203
vt 0.022503 0.205762
vt 0.019359 0.193626
vt 0.019862 0.130092
vt 0.052830 0.018787
vt 0.044088 0.012138
vt 0.056476 0.012138
vt 0.049652 0.020984
vt 0.049652 0.008875
vt 0.056476 0.000028
vt 0.056584 0.012082
vt 0.047841 0.005432
vt 0.051019 0.015344
vt 0.044195 0.024191
vt 0.056584 0.024191
vt 0.047841 0.017542
vt 0.047841 0.029651
vt 0.056584 0.036301
vt 0.044195 0.036301
vt 0.051019 0.027454
vt 0.052830 0.006677
vt 0.044088 0.000028
vt 0.047841 0.041761
vt 0.056584 0.048410
vt 0.044195 0.048410
vt 0.051019 0.039563
vt 0.052830 0.043006
vt 0.044088 0.036357
vt 0.056476 0.036357
vt 0.049652 0.045203
vt 0.044195 0.012082
vt 0.051019 0.003235
vt 0.044088 0.024247
vt 0.052830 0.030896
vt 0.049652 0.033094
vt 0.054744 0.059123
vt 0.049444 0.059123
vt 0.049444 0.053822
vt 0.054744 0.053822
vt 0.056476 0.024247
vt 0.044088 0.053822
vt 0.049388 0.053822
vt 0.049388 0.059123
vt 0.044088 0.059123
vt 0.049444 0.048466
vt 0.054744 0.048466
vt 0.054744 0.053766
vt 0.049444 0.053766
vt 0.049388 0.053766
vt 0.044088 0.053766
vt 0.044088 0.048466
vt 0.049388 0.048466
vn 0.6786 0.6786 -0.2811
vn -0.6786 0.6786 0.2811
vn -0.6786 0.6786 -0.2811
vn 0.6786 0.6786 0.2811
vn -0.2811 0.6786 -0.6786
vn 0.2811 0.6786 0.6786
vn 0.2811 0.6786 -0.6786
vn -0.1821 0.8795 0.4397
vn 0.1821 -0.8795 0.4397
vn 0.4397 0.8795 -0.1821
vn 0.4397 -0.8795 0.1821
vn 0.1821 -0.8795 -0.4397
vn 0.1821 0.8795 0.4397
vn 0.4397 0.8795 0.1821
vn 0.1821 0.8795 -0.4397
vn 0.9239 0.0000 -0.3827
vn -0.9239 -0.0000 0.3827
vn -0.9239 0.0000 -0.3827
vn 0.9239 -0.0000 0.3827
vn -0.3827 0.0000 -0.9239
vn 0.3827 -0.0000 0.9239
vn 0.3827 0.0000 -0.9239
vn -0.3827 -0.0000 0.9239
vn -0.2811 0.6786 0.6786
vn 0.4397 -0.8795 -0.1821
vn -0.1821 -0.8795 0.4397
vn -0.4397 0.8795 0.1821
vn -0.4397 -0.8795 0.1821
vn -0.4397 0.8795 -0.1821
vn -0.1821 0.8795 -0.4397
vn -0.4397 -0.8795 -0.1821
vn -0.1821 -0.8795 -0.4397
vn -0.0000 1.0000 0.0000
vn 0.0000 -1.0000 -0.0000
vn -1.0000 -0.0000 0.0000
vn 0.0000 0.0000 1.0000
vn 1.0000 0.0000 0.0000
vn 0.0000 -0.0000 -1.0000
usemtl None
s 1
f 1/1/1 2/2/1 3/3/1
f 4/4/2 2/2/2 5/5/2
f 5/5/3 2/2/3 6/6/3
f 3/3/4 2/2/4 7/7/4
f 6/6/5 2/2/5 8/8/5
f 7/7/6 2/2/6 9/9/6
f 8/8/7 2/2/7 1/1/7
f 10/10/8 11/11/8 12/12/8 13/13/8
f 9/9/9 14/14/9 15/15/9 7/7/9
f 16/16/10 17/17/10 18/18/10 19/19/10
f 7/7/11 15/15/11 20/20/11 3/3/11
f 1/1/12 21/21/12 22/22/12 8/8/12
f 23/23/13 24/24/13 11/11/13 10/10/13
f 19/19/14 18/18/14 24/24/14 23/23/14
f 25/25/15 26/26/15 17/17/15 16/16/15
f 17/17/16 21/21/16 20/20/16 18/18/16
f 12/12/17 27/27/17 28/28/17 29/29/17
f 29/29/18 28/28/18 30/30/18 31/31/18
f 18/18/19 20/20/19 15/15/19 24/24/19
f 31/31/20 30/30/20 22/22/20 26/26/20
f 24/24/21 15/15/21 14/14/21 11/11/21
f 26/26/22 22/22/22 21/21/22 17/17/22
f 11/11/23 14/14/23 27/27/23 12/12/23
f 9/9/24 2/2/24 4/4/24
f 3/3/25 20/20/25 21/21/25 1/1/25
f 4/4/26 27/27/26 14/14/26 9/9/26
f 13/13/27 12/12/27 29/29/27 32/32/27
f 5/5/28 28/28/28 27/27/28 4/4/28
f 32/32/29 29/29/29 31/31/29 33/33/29
f 33/33/30 31/31/30 26/26/30 25/25/30
f 6/6/31 30/30/31 28/28/31 5/5/31
f 8/8/32 22/22/32 30/30/32 6/6/32
f 34/34/16 16/16/16 19/19/16 35/35/16
f 36/36/17 13/13/17 32/32/17 37/37/17
f 37/37/18 32/32/18 33/33/18 38/38/18
f 35/35/19 19/19/19 23/23/19 39/39/19
f 38/38/20 33/33/20 25/25/20 40/40/20
f 39/39/21 23/23/21 10/10/21 41/41/21
f 40/40/22 25/25/22 16/16/22 34/34/22
f 41/41/23 10/10/23 13/13/23 36/36/23
f 42/42/33 43/43/33 36/36/33 37/37/33 38/38/33
f 44/44/33 42/42/33 38/38/33 40/40/33 34/34/33
f 43/43/33 45/45/33 39/39/33 41/41/33 36/36/33
f 45/45/33 44/44/33 34/34/33 35/35/33 39/39/33
f 46/46/33 47/47/33 48/48/33 49/49/33
f 49/49/33 48/48/33 50/50/33 51/51/33
f 52/52/34 53/53/34 54/54/34 55/55/34
f 55/55/35 54/54/35 56/56/35 57/57/35
f 57/57/33 56/56/33 47/47/33 46/46/33
f 54/54/36 53/53/36 50/50/36 48/48/36 47/47/36 56/56/36
f 58/58/36 57/57/36 46/46/36 59/59/36
f 59/59/36 46/46/36 49/49/36 60/60/36
f 45/45/36 55/55/36 57/57/36 58/58/36
f 60/60/36 49/49/36 51/51/36 61/61/36
f 61/61/36 51/51/36 52/52/36 43/43/36
f 51/51/37 50/50/37 53/53/37 52/52/37
f 62/62/37 63/63/37 44/44/37 45/45/37 58/58/37 64/64/37
f 42/42/38 44/44/38 63/63/38 65/65/38 66/66/38 67/67/38
f 43/43/36 52/52/36 55/55/36 45/45/36
f 68/68/35 61/61/35 43/43/35 42/42/35 67/67/35 69/69/35
f 70/70/34 71/71/34 72/72/34 73/73/34
f 71/71/34 66/66/34 65/65/34 72/72/34
f 64/64/34 73/73/34 72/72/34 62/62/34
f 73/73/34 59/59/34 60/60/34 70/70/34
f 70/70/34 68/68/34 69/69/34 71/71/34
f 74/74/38 65/75/38 63/76/38 75/77/38
f 76/78/35 59/79/35 73/80/35 77/81/35
f 78/82/35 72/83/35 65/75/35 74/74/35
f 75/77/37 63/76/37 62/84/37 79/85/37
f 80/86/36 60/87/36 61/88/36 81/89/36
f 82/90/36 58/91/36 59/79/36 76/78/36
f 83/92/38 67/93/38 66/94/38 84/95/38
f 85/96/36 71/97/36 69/98/36 86/99/36
f 77/81/38 73/80/38 64/100/38 87/101/38
f 84/95/37 66/94/37 71/97/37 85/96/37
f 86/99/35 69/98/35 67/93/35 83/92/35
f 81/89/35 61/88/35 68/102/35 88/103/35
f 81/89/34 88/103/34 89/104/34 80/86/34
f 63/105/34 62/106/34 72/107/34 65/108/34
f 86/99/34 83/92/34 84/95/34 85/96/34
f 89/104/37 70/109/37 60/87/37 80/86/37
f 75/77/34 79/85/34 78/82/34 74/74/34
f 87/101/34 82/90/34 76/78/34 77/81/34
f 88/103/38 68/102/38 70/109/38 89/104/38
f 61/110/34 68/111/34 70/112/34 60/113/34
f 69/114/34 67/115/34 66/116/34 71/117/34
f 87/101/37 64/100/37 58/91/37 82/90/37
f 79/85/36 62/84/36 72/83/36 78/82/36
f 64/118/34 58/119/34 59/120/34 73/121/34
