# Blender v2.79 (sub 0) OBJ File: ''
# www.blender.org
mtllib GearBuildFanbase.mtl
o Cube.001
v -0.833824 0.833333 0.718820
v -0.787760 0.833333 0.787760
v -0.926777 1.000000 0.926777
v -0.980970 1.000000 0.845671
v -0.718820 0.833333 -0.833824
v -0.787760 0.833333 -0.787760
v -0.926777 1.000000 -0.926777
v -0.845671 1.000000 -0.980970
v 0.850000 0.833333 0.637500
v 0.850000 0.833333 -0.637500
v 1.000000 1.000000 -0.750000
v 1.000000 1.000000 0.750000
v -0.718820 0.833333 0.833824
v -0.845671 1.000000 0.980970
v -0.833824 0.833333 -0.718820
v -0.980970 1.000000 -0.845671
v 0.833824 0.833333 -0.718820
v 0.980970 1.000000 -0.845671
v -0.637500 0.833333 0.850000
v -0.750000 1.000000 1.000000
v -0.850000 0.833333 -0.637500
v -1.000000 1.000000 -0.750000
v 0.787760 0.833333 -0.787760
v 0.926777 1.000000 -0.926777
v 0.637500 0.833333 0.850000
v 0.750000 1.000000 1.000000
v 0.718820 0.833333 -0.833824
v 0.845671 1.000000 -0.980970
v 0.718820 0.833333 0.833824
v 0.845671 1.000000 0.980970
v 0.637500 0.833333 -0.850000
v 0.750000 1.000000 -1.000000
v 0.787760 0.833333 0.787760
v 0.926777 1.000000 0.926777
v -0.850000 0.833333 0.637500
v -1.000000 1.000000 0.750000
v -0.637500 0.833333 -0.850000
v -0.750000 1.000000 -1.000000
v 0.833824 0.833333 0.718820
v 0.980970 1.000000 0.845671
v -0.845671 0.000000 -0.980970
v -0.700215 0.000000 -0.812243
v -0.767371 0.000000 -0.767371
v -0.926777 0.000000 -0.926777
v 1.000000 0.000000 -0.750000
v 0.828000 0.000000 -0.621000
v 0.812243 0.000000 -0.700215
v 0.980970 0.000000 -0.845671
v -0.980970 -0.000000 0.845671
v -0.812243 -0.000000 0.700215
v -0.767371 -0.000000 0.767371
v -0.926777 -0.000000 0.926777
v 0.750000 -0.000000 1.000000
v 0.621000 -0.000000 0.828000
v 0.700215 -0.000000 0.812243
v 0.845671 -0.000000 0.980970
v 0.750000 0.000000 -1.000000
v 0.621000 0.000000 -0.828000
v -0.621000 0.000000 -0.828000
v -0.750000 0.000000 -1.000000
v -1.000000 0.000000 -0.750000
v -0.828000 0.000000 -0.621000
v -0.828000 -0.000000 0.621000
v -1.000000 -0.000000 0.750000
v 1.000000 -0.000000 0.750000
v 0.828000 -0.000000 0.621000
v -0.980970 0.000000 -0.845671
v -0.812243 0.000000 -0.700215
v -0.845671 -0.000000 0.980970
v -0.700215 -0.000000 0.812243
v -0.621000 -0.000000 0.828000
v -0.750000 -0.000000 1.000000
v 0.845671 0.000000 -0.980970
v 0.700215 0.000000 -0.812243
v 0.926777 -0.000000 0.926777
v 0.767371 -0.000000 0.767371
v 0.812243 -0.000000 0.700215
v 0.980970 -0.000000 0.845671
v 0.767371 0.000000 -0.767371
v 0.926777 0.000000 -0.926777
v 0.850000 0.166667 0.637500
v 0.833824 0.166667 0.718820
v 0.850000 0.333333 0.637500
v 0.833824 0.333333 0.718820
v 0.850000 0.500000 0.637500
v 0.833824 0.500000 0.718820
v 0.850000 0.666667 0.637500
v 0.833824 0.666667 0.718820
v -0.718820 0.166667 -0.833824
v -0.637500 0.166667 -0.850000
v -0.718820 0.333333 -0.833824
v -0.637500 0.333333 -0.850000
v -0.718820 0.500000 -0.833824
v -0.637500 0.500000 -0.850000
v -0.718820 0.666667 -0.833824
v -0.637500 0.666667 -0.850000
v -0.833824 0.166667 0.718820
v -0.850000 0.166667 0.637500
v -0.833824 0.333333 0.718820
v -0.850000 0.333333 0.637500
v -0.833824 0.500000 0.718820
v -0.850000 0.500000 0.637500
v -0.833824 0.666667 0.718820
v -0.850000 0.666667 0.637500
v 0.787760 0.166667 0.787760
v 0.787760 0.333333 0.787760
v 0.787760 0.500000 0.787760
v 0.787760 0.666667 0.787760
v 0.637500 0.166667 -0.850000
v 0.637500 0.333333 -0.850000
v 0.637500 0.500000 -0.850000
v 0.637500 0.666667 -0.850000
v -0.850000 0.166667 -0.637500
v -0.850000 0.333333 -0.637500
v -0.850000 0.500000 -0.637500
v -0.850000 0.666667 -0.637500
v 0.718820 0.166667 0.833824
v 0.718820 0.333333 0.833824
v 0.718820 0.500000 0.833824
v 0.718820 0.666667 0.833824
v 0.718820 0.166667 -0.833824
v 0.718820 0.333333 -0.833824
v 0.718820 0.500000 -0.833824
v 0.718820 0.666667 -0.833824
v 0.637500 0.166667 0.850000
v 0.637500 0.333333 0.850000
v 0.637500 0.500000 0.850000
v 0.637500 0.666667 0.850000
v 0.787760 0.166667 -0.787760
v 0.787760 0.333333 -0.787760
v 0.787760 0.500000 -0.787760
v 0.787760 0.666667 -0.787760
v -0.637500 0.166667 0.850000
v -0.637500 0.333333 0.850000
v -0.637500 0.500000 0.850000
v -0.637500 0.666667 0.850000
v 0.833824 0.166667 -0.718820
v 0.833824 0.333333 -0.718820
v 0.833824 0.500000 -0.718820
v 0.833824 0.666667 -0.718820
v -0.833824 0.166667 -0.718820
v -0.833824 0.333333 -0.718820
v -0.833824 0.500000 -0.718820
v -0.833824 0.666667 -0.718820
v -0.718820 0.166667 0.833824
v -0.718820 0.333333 0.833824
v -0.718820 0.500000 0.833824
v -0.718820 0.666667 0.833824
v 0.850000 0.166667 -0.637500
v 0.850000 0.333333 -0.637500
v 0.850000 0.500000 -0.637500
v 0.850000 0.666667 -0.637500
v -0.787760 0.166667 -0.787760
v -0.787760 0.333333 -0.787760
v -0.787760 0.500000 -0.787760
v -0.787760 0.666667 -0.787760
v -0.787760 0.166667 0.787760
v -0.787760 0.333333 0.787760
v -0.787760 0.500000 0.787760
v -0.787760 0.666667 0.787760
v 0.784776 0.166667 0.676537
v 0.800000 0.166667 0.600000
v 0.784776 0.333333 0.676537
v 0.800000 0.333333 0.600000
v 0.784776 0.500000 0.676537
v 0.800000 0.500000 0.600000
v 0.784776 0.666667 0.676537
v 0.800000 0.666667 0.600000
v -0.676537 0.833333 0.784776
v -0.600000 0.833333 0.800000
v -0.600000 0.666667 0.800000
v -0.676537 0.666667 0.784776
v -0.600000 0.166667 -0.800000
v -0.676537 0.166667 -0.784776
v -0.600000 0.333333 -0.800000
v -0.676537 0.333333 -0.784776
v -0.600000 0.500000 -0.800000
v -0.676537 0.500000 -0.784776
v -0.600000 0.666667 -0.800000
v -0.676537 0.666667 -0.784776
v -0.741421 0.833333 -0.741421
v -0.784776 0.833333 -0.676537
v -0.784776 0.666667 -0.676537
v -0.741421 0.666667 -0.741421
v -0.800000 0.166667 0.600000
v -0.784776 0.166667 0.676537
v -0.800000 0.333333 0.600000
v -0.784776 0.333333 0.676537
v -0.800000 0.500000 0.600000
v -0.784776 0.500000 0.676537
v -0.800000 0.666667 0.600000
v -0.784776 0.666667 0.676537
v 0.741421 0.166667 0.741421
v 0.741421 0.333333 0.741421
v 0.741421 0.500000 0.741421
v 0.741421 0.666667 0.741421
v 0.600000 0.166667 -0.800000
v 0.600000 0.333333 -0.800000
v 0.600000 0.500000 -0.800000
v 0.600000 0.666667 -0.800000
v 0.800000 0.833333 -0.600000
v 0.784776 0.833333 -0.676537
v 0.784776 0.666667 -0.676537
v 0.800000 0.666667 -0.600000
v -0.800000 0.166667 -0.600000
v -0.800000 0.333333 -0.600000
v -0.800000 0.500000 -0.600000
v -0.800000 0.666667 -0.600000
v 0.800000 0.833333 0.600000
v 0.784776 0.833333 0.676537
v 0.676537 0.166667 0.784776
v 0.676537 0.333333 0.784776
v 0.676537 0.500000 0.784776
v 0.676537 0.666667 0.784776
v 0.676537 0.833333 -0.784776
v 0.600000 0.833333 -0.800000
v 0.676537 0.666667 -0.784776
v 0.676537 0.166667 -0.784776
v 0.676537 0.333333 -0.784776
v 0.676537 0.500000 -0.784776
v -0.600000 0.833333 -0.800000
v 0.000000 0.833333 -0.750000
v 0.600000 0.166667 0.800000
v 0.600000 0.333333 0.800000
v 0.600000 0.500000 0.800000
v 0.600000 0.666667 0.800000
v -0.800000 0.833333 0.600000
v -0.800000 0.833333 -0.600000
v -0.750000 0.833333 0.000000
v 0.741421 0.166667 -0.741421
v 0.741421 0.333333 -0.741421
v 0.741421 0.500000 -0.741421
v 0.741421 0.666667 -0.741421
v 0.600000 0.833333 0.800000
v 0.000000 0.833333 0.750000
v -0.600000 0.166667 0.800000
v -0.600000 0.333333 0.800000
v -0.600000 0.500000 0.800000
v 0.750000 0.833333 -0.000001
v 0.784776 0.166667 -0.676537
v 0.784776 0.333333 -0.676537
v 0.784776 0.500000 -0.676537
v 0.741421 0.833333 -0.741421
v -0.784776 0.166667 -0.676537
v -0.784776 0.333333 -0.676537
v -0.784776 0.500000 -0.676537
v -0.676537 0.166667 0.784776
v -0.676537 0.333333 0.784776
v -0.676537 0.500000 0.784776
v 0.800000 0.166667 -0.600000
v 0.800000 0.333333 -0.600000
v 0.800000 0.500000 -0.600000
v -0.784776 0.833333 0.676537
v -0.741421 0.166667 -0.741421
v -0.741421 0.333333 -0.741421
v -0.741421 0.500000 -0.741421
v -0.741421 0.666667 0.741421
v -0.741421 0.833333 0.741421
v -0.741421 0.166667 0.741421
v -0.741421 0.333333 0.741421
v -0.741421 0.500000 0.741421
v -0.676537 0.833333 -0.784776
v 0.741421 0.833333 0.741421
v -0.146318 0.833333 0.735589
v -0.146318 1.000000 0.735589
v 0.000000 1.000000 0.750000
v -0.287012 0.833333 0.692910
v -0.287012 1.000000 0.692910
v -0.416678 0.833333 0.623602
v -0.416678 1.000000 0.623602
v -0.530330 0.833333 0.530330
v -0.530330 1.000000 0.530330
v -0.623602 0.833333 0.416678
v -0.623602 1.000000 0.416678
v -0.692910 0.833333 0.287012
v -0.692910 1.000000 0.287012
v -0.735589 0.833333 0.146318
v -0.735589 1.000000 0.146318
v -0.750000 1.000000 0.000000
v -0.735589 0.833333 -0.146318
v -0.735589 1.000000 -0.146318
v -0.692910 0.833333 -0.287013
v -0.692910 1.000000 -0.287013
v -0.623602 0.833333 -0.416678
v -0.623602 1.000000 -0.416678
v -0.530330 0.833333 -0.530330
v -0.530330 1.000000 -0.530330
v -0.416678 0.833333 -0.623602
v -0.416678 1.000000 -0.623602
v -0.287013 0.833333 -0.692910
v -0.287013 1.000000 -0.692910
v -0.146318 0.833333 -0.735589
v -0.146318 1.000000 -0.735589
v 0.000000 1.000000 -0.750000
v 0.146317 0.833333 -0.735589
v 0.146317 1.000000 -0.735589
v 0.287012 0.833333 -0.692910
v 0.287012 1.000000 -0.692910
v 0.416677 0.833333 -0.623603
v 0.416677 1.000000 -0.623603
v 0.530329 0.833333 -0.530331
v 0.530329 1.000000 -0.530331
v 0.623602 0.833333 -0.416678
v 0.623602 1.000000 -0.416678
v 0.692909 0.833333 -0.287013
v 0.692909 1.000000 -0.287013
v 0.735589 0.833333 -0.146319
v 0.735589 1.000000 -0.146319
v 0.750000 1.000000 -0.000001
v 0.146318 1.000000 0.735589
v 0.146318 0.833333 0.735589
v 0.287013 1.000000 0.692909
v 0.287013 0.833333 0.692909
v 0.416678 1.000000 0.623602
v 0.416678 0.833333 0.623602
v 0.530330 1.000000 0.530330
v 0.530330 0.833333 0.530330
v 0.623603 1.000000 0.416677
v 0.623603 0.833333 0.416677
v 0.692910 1.000000 0.287012
v 0.692910 0.833333 0.287012
v 0.735589 0.833333 0.146317
v 0.735589 1.000000 0.146317
v 0.676537 0.833333 0.784776
vn -0.5437 -0.7566 0.3633
vn -0.3633 -0.7566 -0.5437
vn 0.7433 -0.6690 -0.0000
vn -0.3633 -0.7566 0.5437
vn -0.5437 -0.7566 -0.3633
vn 0.6885 -0.7121 -0.1370
vn -0.1370 -0.7121 0.6885
vn -0.6885 -0.7121 -0.1370
vn 0.5437 -0.7566 -0.3633
vn 0.0000 -0.6690 0.7433
vn 0.3633 -0.7566 -0.5437
vn 0.1370 -0.7121 0.6885
vn 0.1370 -0.7121 -0.6885
vn 0.3633 -0.7566 0.5437
vn -0.7433 -0.6690 -0.0000
vn 0.0000 -0.6690 -0.7433
vn 0.5437 -0.7566 0.3633
vn -0.6885 -0.7121 0.1370
vn -0.1370 -0.7121 -0.6885
vn 0.6885 -0.7121 0.1370
vn -0.0000 -1.0000 -0.0000
vn 0.6885 0.7121 0.1370
vn 0.9808 0.0000 0.1951
vn -0.1370 0.7121 -0.6885
vn -0.1951 0.0000 -0.9808
vn -0.6885 0.7121 0.1370
vn -0.9808 0.0000 0.1951
vn 0.5437 0.7566 0.3633
vn 0.8315 0.0000 0.5556
vn 0.0000 0.6690 -0.7433
vn 0.0000 0.0000 -1.0000
vn -0.7433 0.6690 0.0000
vn -1.0000 0.0000 0.0000
vn 0.3633 0.7566 0.5437
vn 0.5556 -0.0000 0.8315
vn 0.1370 0.7121 -0.6885
vn 0.1951 0.0000 -0.9808
vn 0.1370 0.7121 0.6885
vn 0.1951 -0.0000 0.9808
vn 0.3633 0.7566 -0.5437
vn 0.5556 0.0000 -0.8315
vn 0.0000 0.6690 0.7433
vn 0.0000 -0.0000 1.0000
vn 0.5437 0.7566 -0.3633
vn 0.8315 0.0000 -0.5556
vn -0.6885 0.7121 -0.1370
vn -0.9808 0.0000 -0.1951
vn -0.1370 0.7121 0.6885
vn -0.1951 -0.0000 0.9808
vn 0.6885 0.7121 -0.1370
vn 0.9808 0.0000 -0.1951
vn -0.5437 0.7566 -0.3633
vn -0.8315 0.0000 -0.5556
vn -0.3633 0.7566 0.5437
vn -0.5556 -0.0000 0.8315
vn 0.7433 0.6690 0.0000
vn 1.0000 0.0000 0.0000
vn -0.3633 0.7566 -0.5437
vn -0.5556 0.0000 -0.8315
vn -0.5437 0.7566 0.3633
vn -0.8315 0.0000 0.5556
vn -0.9637 -0.1860 -0.1917
vn 0.1917 -0.1860 0.9637
vn 0.9637 -0.1860 -0.1917
vn -0.8127 -0.2111 -0.5431
vn 0.0000 -0.1657 0.9862
vn 0.9862 -0.1657 -0.0000
vn -0.5431 -0.2111 -0.8127
vn -0.1917 -0.1860 0.9637
vn -0.1917 -0.1860 -0.9637
vn -0.5430 -0.2111 0.8127
vn 0.0000 -0.1657 -0.9862
vn -0.8127 -0.2111 0.5430
vn 0.9637 -0.1860 0.1917
vn 0.1917 -0.1860 -0.9637
vn -0.9637 -0.1860 0.1917
vn 0.8127 -0.2111 0.5430
vn 0.5431 -0.2111 -0.8127
vn -0.9862 -0.1657 -0.0000
vn 0.5430 -0.2111 0.8127
vn 0.8127 -0.2111 -0.5431
vn 0.0980 0.0000 -0.9952
vn 0.2903 0.0000 -0.9569
vn 0.4714 0.0000 -0.8819
vn 0.6344 0.0000 -0.7730
vn 0.7730 0.0000 -0.6344
vn 0.8819 0.0000 -0.4714
vn 0.9569 0.0000 -0.2903
vn 0.9952 0.0000 -0.0980
vn 0.9952 0.0000 0.0980
vn 0.9569 0.0000 0.2903
vn 0.8819 0.0000 0.4714
vn 0.7730 -0.0000 0.6344
vn 0.6344 -0.0000 0.7730
vn 0.4714 -0.0000 0.8819
vn 0.2903 -0.0000 0.9569
vn 0.0980 -0.0000 0.9952
vn -0.0980 -0.0000 0.9952
vn -0.2903 -0.0000 0.9569
vn -0.4714 -0.0000 0.8819
vn -0.6344 -0.0000 0.7730
vn -0.7730 0.0000 0.6344
vn -0.8819 0.0000 0.4714
vn -0.9569 0.0000 0.2903
vn -0.9952 -0.0000 0.0980
vn -0.0980 0.0000 -0.9952
vn -0.2903 0.0000 -0.9569
vn -0.4714 0.0000 -0.8819
vn -0.6344 0.0000 -0.7730
vn -0.7730 0.0000 -0.6344
vn -0.8819 0.0000 -0.4714
vn -0.9952 -0.0000 -0.0980
vn -0.9569 -0.0000 -0.2903
vn 0.0000 1.0000 -0.0000
usemtl None
s 1
f 1//1 2//1 3//1 4//1
f 5//2 6//2 7//2 8//2
f 9//3 10//3 11//3 12//3
f 2//4 13//4 14//4 3//4
f 6//5 15//5 16//5 7//5
f 10//6 17//6 18//6 11//6
f 13//7 19//7 20//7 14//7
f 15//8 21//8 22//8 16//8
f 17//9 23//9 24//9 18//9
f 19//10 25//10 26//10 20//10
f 23//11 27//11 28//11 24//11
f 25//12 29//12 30//12 26//12
f 27//13 31//13 32//13 28//13
f 29//14 33//14 34//14 30//14
f 21//15 35//15 36//15 22//15
f 31//16 37//16 38//16 32//16
f 33//17 39//17 40//17 34//17
f 35//18 1//18 4//18 36//18
f 37//19 5//19 8//19 38//19
f 39//20 9//20 12//20 40//20
f 41//21 42//21 43//21 44//21
f 45//21 46//21 47//21 48//21
f 49//21 50//21 51//21 52//21
f 53//21 54//21 55//21 56//21
f 57//21 58//21 59//21 60//21
f 61//21 62//21 63//21 64//21
f 65//21 66//21 46//21 45//21
f 64//21 63//21 50//21 49//21
f 67//21 68//21 62//21 61//21
f 69//21 70//21 71//21 72//21
f 72//21 71//21 54//21 53//21
f 73//21 74//21 58//21 57//21
f 75//21 76//21 77//21 78//21
f 44//21 43//21 68//21 67//21
f 78//21 77//21 66//21 65//21
f 48//21 47//21 79//21 80//21
f 52//21 51//21 70//21 69//21
f 80//21 79//21 74//21 73//21
f 60//21 59//21 42//21 41//21
f 56//21 55//21 76//21 75//21
f 78//22 65//22 81//22 82//22
f 82//23 81//23 83//23 84//23
f 84//23 83//23 85//23 86//23
f 86//23 85//23 87//23 88//23
f 88//23 87//23 9//23 39//23
f 60//24 41//24 89//24 90//24
f 90//25 89//25 91//25 92//25
f 92//25 91//25 93//25 94//25
f 94//25 93//25 95//25 96//25
f 96//25 95//25 5//25 37//25
f 64//26 49//26 97//26 98//26
f 98//27 97//27 99//27 100//27
f 100//27 99//27 101//27 102//27
f 102//27 101//27 103//27 104//27
f 104//27 103//27 1//27 35//27
f 75//28 78//28 82//28 105//28
f 105//29 82//29 84//29 106//29
f 106//29 84//29 86//29 107//29
f 107//29 86//29 88//29 108//29
f 108//29 88//29 39//29 33//29
f 57//30 60//30 90//30 109//30
f 109//31 90//31 92//31 110//31
f 110//31 92//31 94//31 111//31
f 111//31 94//31 96//31 112//31
f 112//31 96//31 37//31 31//31
f 61//32 64//32 98//32 113//32
f 113//33 98//33 100//33 114//33
f 114//33 100//33 102//33 115//33
f 115//33 102//33 104//33 116//33
f 116//33 104//33 35//33 21//33
f 56//34 75//34 105//34 117//34
f 117//35 105//35 106//35 118//35
f 118//35 106//35 107//35 119//35
f 119//35 107//35 108//35 120//35
f 120//35 108//35 33//35 29//35
f 73//36 57//36 109//36 121//36
f 121//37 109//37 110//37 122//37
f 122//37 110//37 111//37 123//37
f 123//37 111//37 112//37 124//37
f 124//37 112//37 31//37 27//37
f 53//38 56//38 117//38 125//38
f 125//39 117//39 118//39 126//39
f 126//39 118//39 119//39 127//39
f 127//39 119//39 120//39 128//39
f 128//39 120//39 29//39 25//39
f 80//40 73//40 121//40 129//40
f 129//41 121//41 122//41 130//41
f 130//41 122//41 123//41 131//41
f 131//41 123//41 124//41 132//41
f 132//41 124//41 27//41 23//41
f 72//42 53//42 125//42 133//42
f 133//43 125//43 126//43 134//43
f 134//43 126//43 127//43 135//43
f 135//43 127//43 128//43 136//43
f 136//43 128//43 25//43 19//43
f 48//44 80//44 129//44 137//44
f 137//45 129//45 130//45 138//45
f 138//45 130//45 131//45 139//45
f 139//45 131//45 132//45 140//45
f 140//45 132//45 23//45 17//45
f 67//46 61//46 113//46 141//46
f 141//47 113//47 114//47 142//47
f 142//47 114//47 115//47 143//47
f 143//47 115//47 116//47 144//47
f 144//47 116//47 21//47 15//47
f 69//48 72//48 133//48 145//48
f 145//49 133//49 134//49 146//49
f 146//49 134//49 135//49 147//49
f 147//49 135//49 136//49 148//49
f 148//49 136//49 19//49 13//49
f 45//50 48//50 137//50 149//50
f 149//51 137//51 138//51 150//51
f 150//51 138//51 139//51 151//51
f 151//51 139//51 140//51 152//51
f 152//51 140//51 17//51 10//51
f 44//52 67//52 141//52 153//52
f 153//53 141//53 142//53 154//53
f 154//53 142//53 143//53 155//53
f 155//53 143//53 144//53 156//53
f 156//53 144//53 15//53 6//53
f 52//54 69//54 145//54 157//54
f 157//55 145//55 146//55 158//55
f 158//55 146//55 147//55 159//55
f 159//55 147//55 148//55 160//55
f 160//55 148//55 13//55 2//55
f 65//56 45//56 149//56 81//56
f 81//57 149//57 150//57 83//57
f 83//57 150//57 151//57 85//57
f 85//57 151//57 152//57 87//57
f 87//57 152//57 10//57 9//57
f 41//58 44//58 153//58 89//58
f 89//59 153//59 154//59 91//59
f 91//59 154//59 155//59 93//59
f 93//59 155//59 156//59 95//59
f 95//59 156//59 6//59 5//59
f 49//60 52//60 157//60 97//60
f 97//61 157//61 158//61 99//61
f 99//61 158//61 159//61 101//61
f 101//61 159//61 160//61 103//61
f 103//61 160//61 2//61 1//61
f 77//62 161//62 162//62 66//62
f 161//47 163//47 164//47 162//47
f 163//47 165//47 166//47 164//47
f 165//47 167//47 168//47 166//47
f 169//37 170//37 171//37 172//37
f 59//63 173//63 174//63 42//63
f 173//39 175//39 176//39 174//39
f 175//39 177//39 178//39 176//39
f 177//39 179//39 180//39 178//39
f 181//29 182//29 183//29 184//29
f 63//64 185//64 186//64 50//64
f 185//51 187//51 188//51 186//51
f 187//51 189//51 190//51 188//51
f 189//51 191//51 192//51 190//51
f 76//65 193//65 161//65 77//65
f 193//53 194//53 163//53 161//53
f 194//53 195//53 165//53 163//53
f 195//53 196//53 167//53 165//53
f 58//66 197//66 173//66 59//66
f 197//43 198//43 175//43 173//43
f 198//43 199//43 177//43 175//43
f 199//43 200//43 179//43 177//43
f 201//27 202//27 203//27 204//27
f 62//67 205//67 185//67 63//67
f 205//57 206//57 187//57 185//57
f 206//57 207//57 189//57 187//57
f 207//57 208//57 191//57 189//57
f 209//47 168//47 167//47 210//47
f 55//68 211//68 193//68 76//68
f 211//59 212//59 194//59 193//59
f 212//59 213//59 195//59 194//59
f 213//59 214//59 196//59 195//59
f 215//49 216//49 200//49 217//49
f 74//69 218//69 197//69 58//69
f 218//49 219//49 198//49 197//49
f 219//49 220//49 199//49 198//49
f 220//49 217//49 200//49 199//49
f 221//21 216//21 222//21
f 54//70 223//70 211//70 55//70
f 223//25 224//25 212//25 211//25
f 224//25 225//25 213//25 212//25
f 225//25 226//25 214//25 213//25
f 227//21 228//21 229//21
f 79//71 230//71 218//71 74//71
f 230//55 231//55 219//55 218//55
f 231//55 232//55 220//55 219//55
f 232//55 233//55 217//55 220//55
f 234//21 170//21 235//21
f 71//72 236//72 223//72 54//72
f 236//31 237//31 224//31 223//31
f 237//31 238//31 225//31 224//31
f 238//31 171//31 226//31 225//31
f 209//21 239//21 201//21
f 47//73 240//73 230//73 79//73
f 240//61 241//61 231//61 230//61
f 241//61 242//61 232//61 231//61
f 242//61 203//61 233//61 232//61
f 202//61 243//61 233//61 203//61
f 68//74 244//74 205//74 62//74
f 244//23 245//23 206//23 205//23
f 245//23 246//23 207//23 206//23
f 246//23 183//23 208//23 207//23
f 228//57 227//57 191//57 208//57
f 70//75 247//75 236//75 71//75
f 247//37 248//37 237//37 236//37
f 248//37 249//37 238//37 237//37
f 249//37 172//37 171//37 238//37
f 216//43 221//43 179//43 200//43
f 46//76 250//76 240//76 47//76
f 250//27 251//27 241//27 240//27
f 251//27 252//27 242//27 241//27
f 252//27 204//27 203//27 242//27
f 227//51 253//51 192//51 191//51
f 43//77 254//77 244//77 68//77
f 254//29 255//29 245//29 244//29
f 255//29 256//29 246//29 245//29
f 256//29 184//29 183//29 246//29
f 257//45 192//45 253//45 258//45
f 51//78 259//78 247//78 70//78
f 259//41 260//41 248//41 247//41
f 260//41 261//41 249//41 248//41
f 261//41 257//41 172//41 249//41
f 184//35 180//35 262//35 181//35
f 66//79 162//79 250//79 46//79
f 162//33 164//33 251//33 250//33
f 164//33 166//33 252//33 251//33
f 166//33 168//33 204//33 252//33
f 262//39 180//39 179//39 221//39
f 42//80 174//80 254//80 43//80
f 174//35 176//35 255//35 254//35
f 176//35 178//35 256//35 255//35
f 178//35 180//35 184//35 256//35
f 50//81 186//81 259//81 51//81
f 186//45 188//45 260//45 259//45
f 188//45 190//45 261//45 260//45
f 190//45 192//45 257//45 261//45
f 263//53 210//53 167//53 196//53
f 264//82 265//82 266//82 235//82
f 267//83 268//83 265//83 264//83
f 269//84 270//84 268//84 267//84
f 271//85 272//85 270//85 269//85
f 273//86 274//86 272//86 271//86
f 275//87 276//87 274//87 273//87
f 277//88 278//88 276//88 275//88
f 229//89 279//89 278//89 277//89
f 280//90 281//90 279//90 229//90
f 282//91 283//91 281//91 280//91
f 284//92 285//92 283//92 282//92
f 286//93 287//93 285//93 284//93
f 288//94 289//94 287//94 286//94
f 290//95 291//95 289//95 288//95
f 292//96 293//96 291//96 290//96
f 222//97 294//97 293//97 292//97
f 295//98 296//98 294//98 222//98
f 297//99 298//99 296//99 295//99
f 299//100 300//100 298//100 297//100
f 301//101 302//101 300//101 299//101
f 303//102 304//102 302//102 301//102
f 305//103 306//103 304//103 303//103
f 307//104 308//104 306//104 305//104
f 239//105 309//105 308//105 307//105
f 235//106 266//106 310//106 311//106
f 311//107 310//107 312//107 313//107
f 313//108 312//108 314//108 315//108
f 315//109 314//109 316//109 317//109
f 317//110 316//110 318//110 319//110
f 319//111 318//111 320//111 321//111
f 322//112 323//112 309//112 239//112
f 321//113 320//113 323//113 322//113
f 182//23 228//23 208//23 183//23
f 243//55 215//55 217//55 233//55
f 170//31 234//31 226//31 171//31
f 204//33 168//33 209//33 201//33
f 258//41 169//41 172//41 257//41
f 275//21 227//21 277//21
f 229//21 277//21 227//21
f 264//21 235//21 170//21
f 264//21 170//21 267//21
f 324//59 263//59 196//59 214//59
f 234//25 324//25 214//25 226//25
f 229//21 228//21 280//21
f 280//21 228//21 282//21
f 222//21 292//21 221//21
f 290//21 221//21 292//21
f 222//21 216//21 295//21
f 295//21 216//21 297//21
f 305//21 201//21 307//21
f 307//21 201//21 239//21
f 322//21 209//21 321//21
f 239//21 209//21 322//21
f 313//21 234//21 311//21
f 311//21 234//21 235//21
f 303//21 202//21 201//21 305//21
f 301//21 243//21 202//21 303//21
f 297//21 216//21 215//21 299//21
f 299//21 215//21 243//21 301//21
f 267//21 170//21 169//21 269//21
f 269//21 169//21 258//21 271//21
f 273//21 271//21 258//21 253//21
f 275//21 273//21 253//21 227//21
f 182//21 284//21 282//21 228//21
f 181//21 286//21 284//21 182//21
f 262//21 288//21 286//21 181//21
f 221//21 290//21 288//21 262//21
f 315//21 324//21 234//21 313//21
f 317//21 263//21 324//21 315//21
f 319//21 210//21 263//21 317//21
f 319//21 321//21 209//21 210//21
f 26//114 266//114 20//114
f 36//114 279//114 22//114
f 38//114 294//114 32//114
f 11//114 309//114 12//114
f 309//114 323//114 12//114
f 310//114 266//114 26//114
f 312//114 310//114 26//114
f 26//114 30//114 314//114 312//114
f 30//114 34//114 316//114 314//114
f 34//114 40//114 318//114 316//114
f 323//114 320//114 12//114
f 40//114 12//114 320//114 318//114
f 294//114 296//114 32//114
f 308//114 309//114 11//114
f 306//114 308//114 11//114
f 296//114 298//114 32//114
f 28//114 32//114 298//114 300//114
f 11//114 18//114 304//114 306//114
f 18//114 24//114 302//114 304//114
f 24//114 28//114 300//114 302//114
f 279//114 281//114 22//114
f 293//114 294//114 38//114
f 291//114 293//114 38//114
f 281//114 283//114 22//114
f 16//114 22//114 283//114 285//114
f 7//114 16//114 285//114 287//114
f 8//114 7//114 287//114 289//114
f 38//114 8//114 289//114 291//114
f 278//114 279//114 36//114
f 276//114 278//114 36//114
f 266//114 265//114 20//114
f 265//114 268//114 20//114
f 14//114 20//114 268//114 270//114
f 36//114 4//114 274//114 276//114
f 3//114 14//114 270//114 272//114
f 4//114 3//114 272//114 274//114
